<?xml version="1.0" encoding="UTF-8" standalone="no"?>
<!-- Created with Inkscape (http://www.inkscape.org/) -->

<svg
   xmlns:dc="http://purl.org/dc/elements/1.1/"
   xmlns:cc="http://creativecommons.org/ns#"
   xmlns:rdf="http://www.w3.org/1999/02/22-rdf-syntax-ns#"
   xmlns:svg="http://www.w3.org/2000/svg"
   xmlns="http://www.w3.org/2000/svg"
   xmlns:sodipodi="http://sodipodi.sourceforge.net/DTD/sodipodi-0.dtd"
   xmlns:inkscape="http://www.inkscape.org/namespaces/inkscape"
   width="744.09448819"
   height="1052.3622047"
   id="svg2"
   version="1.1"
   inkscape:version="0.48.4 r9939"
   sodipodi:docname="New document 1">
  <defs
     id="defs4" />
  <sodipodi:namedview
     id="base"
     pagecolor="#ffffff"
     bordercolor="#666666"
     borderopacity="1.0"
     inkscape:pageopacity="0.0"
     inkscape:pageshadow="2"
     inkscape:zoom="0.49497475"
     inkscape:cx="478.24086"
     inkscape:cy="558.40217"
     inkscape:document-units="px"
     inkscape:current-layer="layer1"
     showgrid="false"
     inkscape:window-width="1280"
     inkscape:window-height="745"
     inkscape:window-x="0"
     inkscape:window-y="22"
     inkscape:window-maximized="1" />
  <metadata
     id="metadata7">
    <rdf:RDF>
      <cc:Work
         rdf:about="">
        <dc:format>image/svg+xml</dc:format>
        <dc:type
           rdf:resource="http://purl.org/dc/dcmitype/StillImage" />
        <dc:title></dc:title>
      </cc:Work>
    </rdf:RDF>
  </metadata>
  <g
     inkscape:label="Layer 1"
     inkscape:groupmode="layer"
     id="layer1">
    <path
       style="fill:#000000"
       d="m 319.17323,796.14025 c -2.48546,-2.1151 -2.85071,-3.6922 -1.84186,-7.9526 0.787,-3.3235 5.32385,-6.3351 9.54363,-6.3351 2.0522,0 2.09851,-0.3116 1.59763,-10.75 -0.28371,-5.9125 -0.96529,-13.225 -1.51464,-16.25 -0.54934,-3.025 -1.22464,-7.975 -1.50066,-11 -0.27602,-3.02498 -0.92932,-7.97498 -1.45179,-10.99998 -0.52246,-3.02496 -1.46879,-9.09996 -2.10295,-13.49996 -1.44662,-10.037 -6.96582,-31.7759 -10.40935,-41 -3.8403,-10.2869 -8.20864,-23.5226 -9.01727,-27.3215 -1.29371,-6.0778 -1.6379,-2.5201 -0.57643,5.9583 2.33811,18.6755 4.07686,38.0605 4.49455,50.1089 0.24302,7.0102 0.36402,13.91199 0.7054,14.46429 0.22604,2.04253 0.18705,3.09752 1.26643,4.78781 2.51982,3.8458 0.31203,8.11676 -4.57852,8.85736 -6.96939,1.6177 -13.71299,-1.1446 -12.39556,-7.85576 1.69879,-3.09664 3.56249,-3.6329 7.13472,-3.8579 1.40746,0 2.44812,-2.204 2.46691,-2.8915 0.0188,-0.6875 0.28878,-5.3 0.59998,-10.25 0.6942,-11.042 -1.98079,-39.8569 -4.7345,-51 -1.08735,-4.4 -3.13856,-11.7158 -4.55826,-16.2573 -2.28121,-7.2974 -3.13536,-8.7212 -7.34804,-12.2482 l -4.76677,-3.991 -0.65003,4.3347 c -1.32136,8.8115 -0.88236,46.5321 0.60707,52.1618 0.99601,3.7647 1.49256,7.6319 3.66565,28.5486 1.01226,9.7434 1.77887,12.7574 3.84398,15.113 2.07482,2.3667 1.23485,6.82456 -1.69324,8.98636 -3.23414,2.3877 -14.33657,3.6475 -16.47858,1.8698 -0.83681,-0.6945 -1.52145,-2.5269 -1.52145,-4.0721 0,-3.05656 3.16685,-5.90156 8.5,-7.63626 3.87154,-1.2592 3.92783,-2.7076 0.83915,-21.5913 -1.43144,-8.7516 -2.15236,-16.1968 -1.76717,-18.25 0.35783,-1.9075 0.24987,-3.4681 -0.23992,-3.4681 -1.0339,0 -3.30671,-13.4281 -3.38657,-20.0083 -0.03,-2.4704 -0.7056,-8.3167 -1.50137,-12.9917 -0.79578,-4.675 -1.52125,-9.0427 -1.61216,-9.706 -0.0909,-0.6633 -0.49314,-1.0034 -0.89384,-0.7557 -0.4007,0.2476 -0.98658,-0.2222 -1.30195,-1.044 -0.31537,-0.8219 -0.0824,-1.4943 0.51766,-1.4943 0.7031,0 0.63269,-0.5523 -0.198,-1.5532 -0.70898,-0.8543 -1.62746,-3.4418 -2.04106,-5.75 -0.41361,-2.3082 -1.91363,-8.448 -3.33339,-13.644 -2.66672,-9.7595 -3.30231,-19.0264 -1.61022,-23.4769 0.85445,-2.2474 0.63269,-2.7294 -1.8454,-4.0108 -1.5491,-0.8011 -5.92362,-1.7098 -9.72115,-2.01933 -11.52169,-0.93914 -20.79176,-4.43528 -23.75611,-8.95945 -2.04798,-3.12562 -2.1082,-8.18124 -0.14234,-11.95061 0.82161,-1.57537 1.49384,-4.78972 1.49384,-7.14301 0,-2.8808 0.49007,-4.46676 1.5,-4.85431 1.78029,-0.68316 4.5,0.20445 4.5,1.46862 0,0.49115 1.46547,0.89301 3.2566,0.89301 1.79113,0 4.72143,0.42011 6.51177,0.93357 3.17087,0.90939 3.34334,0.79572 6.66042,-4.3897 1.87289,-2.9278 3.89259,-5.62446 4.48823,-5.99259 1.56524,-0.96737 1.3298,-4.10155 -0.41702,-5.55128 -2.08186,-1.72779 -1.8771,-4 0.36045,-4 1.02325,0 3.52247,1.12787 5.55382,2.50638 2.85837,1.93975 4.11849,2.27886 5.5738,1.5 1.03425,-0.55351 2.96003,-1.00638 4.27952,-1.00638 3.39988,0 3.97292,-0.98398 2.17291,-3.73115 -2.9294,-4.47083 -0.84677,-4.61438 3.36433,-0.23188 2.30734,2.40125 4.19517,4.75704 4.19517,5.23507 0,0.47803 1.77126,2.97488 3.93613,5.54855 4.76929,5.66991 5.64135,7.86368 8.20229,20.63386 -0.30354,18.86073 21.47575,24.31803 33.69796,30.10173 3.96504,1.8941 7.37296,3.4438 7.57316,3.4438 0.2002,0 0.90798,-2.883 1.57285,-6.4067 2.28851,-12.1286 -0.69068,-27.75738 -6.97296,-36.58004 -2.51948,-3.53828 -1.98768,-4.96861 1.74079,-4.68202 5.95866,0.45799 10.0209,13.51504 11.17357,35.91466 0.62423,12.1305 1.0805,15.1014 2.5725,16.75 0.99753,1.1023 2.20288,2.0041 2.67857,2.0041 0.47569,0 2.65594,1.1307 4.845,2.5126 2.18907,1.3819 3.98013,2.2662 3.98013,1.9652 0,-0.3011 1.4001,1.0473 3.1114,2.9963 1.7113,1.9491 4.1832,3.8127 5.4931,4.1415 1.3099,0.3288 2.1524,0.9687 1.8723,1.422 -0.2802,0.4533 -0.052,1.1069 0.5069,1.4523 0.9511,0.5879 1.5195,-2.0418 1.1865,-5.4899 -0.08,-0.825 -0.3484,-8.925 -0.5972,-18 -1.3319,-48.58062 -7.5865,-89.20017 -16.70678,-108.49998 -2.42872,-5.13951 -3.39704,-6.42908 -3.64325,-4.85194 -0.28122,1.80134 -2.65081,3.27959 -5.35118,3.33829 -0.34552,0.008 -2.33926,-2.47069 -4.43052,-5.50711 -3.50761,-5.09289 -4.07388,-5.49978 -7.30654,-5.25 -3.00645,0.2323 -3.72661,-0.15541 -5.06949,-2.72924 -0.86088,-1.65 -1.7022,-3.21197 -1.8696,-3.47104 -0.63954,-0.98972 -1.98437,2.35799 -1.47768,3.6784 0.29309,0.7638 -0.11765,1.92961 -0.91277,2.59068 -0.79512,0.66108 -2.01714,4.12548 -2.71559,7.69866 -0.69845,3.57319 -1.7476,6.79194 -2.33144,7.15277 -0.68266,0.42191 -0.85646,3.36762 -0.48696,8.2533 0.65461,8.65536 -0.12293,9.40932 -4.99886,4.84723 -3.51979,-3.29324 -8.42318,-15.48559 -10.73011,-26.68058 -2.7781,-13.48151 -4.84744,-19.94067 -7.4545,-23.26822 -1.8265,-2.33128 -2.84131,-2.92067 -3.74191,-2.17324 -0.67965,0.56406 -2.27299,0.87852 -3.54077,0.6988 -2.15844,-0.30598 -2.30858,-0.78756 -2.36069,-7.57194 -0.0306,-3.98485 -0.33788,-7.35985 -0.68283,-7.5 -0.66687,-0.27095 -8.08376,14.2029 -9.22135,17.99518 -0.52148,1.7384 -1.4202,2.25 -3.95257,2.25 -3.51052,0 -5.36069,-1.59793 -7.52604,-6.5 -2.51718,-5.69855 -5.04631,-15.01219 -5.05392,-18.61133 -0.007,-3.31555 -0.21328,-3.57202 -2.51836,-3.13137 -1.57676,0.30142 -2.72923,1.35054 -3.09811,2.82031 -0.32307,1.28719 -1.22669,2.87092 -2.00804,3.51938 -1.88786,1.56679 -5.02658,-1.19715 -5.9059,-5.20068 -1.26379,-5.754 -3.9934,-2.69342 -7.57365,8.49197 -2.04393,6.3856 -3.03642,8.17732 -4.66411,8.42002 -1.42996,0.2132 -2.29876,-0.40365 -2.81688,-2 -1.29388,-3.98651 -1.2063,-12.12912 0.18045,-16.77773 1.24217,-4.16394 1.18882,-4.62322 -0.78052,-6.71948 -1.84634,-1.96534 -2.03419,-3.01184 -1.48457,-8.27029 0.73036,-6.98778 5.3291,-19.5474 9.65487,-26.36842 3.12009,-4.91988 3.62822,-6.17424 2.12472,-5.24502 -1.19201,0.7367 -6.11754,-3.22997 -6.11754,-4.92663 0,-0.74477 2.48837,-2.49333 5.5297,-3.8857 5.76439,-2.63902 5.99689,-2.81505 13.7203,-10.38784 5.22362,-5.12174 5.92683,-6.62101 2.5,-5.33009 -1.25202,0.47165 -3.29882,0.45616 -4.61463,-0.0349 -1.97321,-0.73644 -2.25108,-1.33606 -1.67866,-3.62235 1.75903,-7.02561 1.78017,-9.21169 0.0953,-9.85822 -2.65879,-1.02028 -7.92443,0.98091 -9.17354,3.48637 -1.9471,3.90551 -2.89659,4.3451 -5.23119,2.42195 -3.26878,-2.69275 -3.39337,-12.89458 -0.24775,-20.28995 11.25724,-26.46591 21.72674,-39.82923 39.60047,-50.54624 8.64094,-5.18107 20.8138,-9.367 27.5,-9.45653 2.38895,-0.032 2.3085,-0.22145 -1.81118,-4.26535 -5.79614,-5.68953 -12.18882,-14.14664 -12.18882,-16.12504 0,-0.91689 0.82299,-1.60684 1.91667,-1.60684 1.05416,0 2.08,-0.49001 2.27963,-1.08891 0.23908,-0.71722 1.60359,-0.49729 3.99759,0.64433 3.28013,1.56418 4.54515,1.60958 12.97037,0.46545 11.52523,-1.56511 17.16276,-1.63477 22.33574,-0.27596 2.2,0.57789 6.33844,1.25332 9.19653,1.50096 l 5.19652,0.45027 1.24253,-4.84807 c 0.68338,-2.66644 1.57064,-4.84807 1.97168,-4.84807 0.40104,0 1.36183,-0.24278 2.13509,-0.5395 0.77325,-0.29673 2.50615,0.56073 3.85088,1.90546 2.77472,2.77472 7.79216,2.62995 8.05906,-0.23254 0.084,-0.89838 0.2569,-2.08342 0.3847,-2.63342 0.1277,-0.55 0.2842,-1.5625 0.3476,-2.25 0.1618,-1.75277 4.1162,-1.5592 6.173,0.30217 1.5662,1.41739 1.8895,1.33055 3.7227,-1 2.335,-2.96846 6.9656,-3.41997 10.6067,-1.03422 1.2742,0.83487 4.2959,1.71884 6.7149,1.96438 20.0876,2.03901 26.8981,4.74127 26.8981,10.67266 0,1.56475 0.3375,2.87944 0.75,2.92152 0.4125,0.0421 1.5357,0.227 2.496,0.41094 0.9603,0.18393 1.9994,-0.0755 2.309,-0.57652 0.3097,-0.50101 1.549,-0.90485 2.754,-0.89742 1.2051,0.007 5.9292,-0.96752 10.4981,-2.16654 7.5486,-1.98102 8.7086,-2.62668 12.7057,-7.0724 3.7205,-4.13807 4.6949,-4.73377 6.3205,-3.86377 2.2074,1.18133 3.1753,4.83365 2.0717,7.81698 -0.7177,1.94022 -0.4119,2.03887 5.9191,1.90908 7.0106,-0.14372 7.1389,-0.0824 18.1759,8.68529 1.4619,1.16133 10.9687,5.22039 18,7.68535 1.925,0.67484 4.85,1.80911 6.5,2.52058 1.65,0.71148 6.2631,2.27775 10.2514,3.4806 3.9883,1.20285 7.5024,2.59298 7.809,3.08916 0.3067,0.49619 1.2745,0.90216 2.1507,0.90216 0.8762,0 3.5245,1.4625 5.885,3.25 8.5875,6.50279 11.9579,20.16982 5.4811,22.22548 -1.4448,0.45858 -3.3936,-0.38896 -6.7011,-2.91443 -3.6967,-2.82269 -5.567,-3.56105 -9.0199,-3.56105 -3.9519,0 -4.3562,0.22657 -4.3562,2.44098 0,1.34254 0.4063,2.69208 0.9028,2.99897 1.28,0.79107 7.8602,13.92951 10.5701,21.10481 1.2556,3.32462 2.6482,8.49962 3.0947,11.5 0.4465,3.00038 0.8666,5.68024 0.9337,5.95524 0.067,0.275 0.4834,4.26654 0.925,8.87009 0.6379,6.64878 0.5224,8.54789 -0.5616,9.23468 -2.8356,1.79647 -4.8979,0.89345 -6.5195,-2.85477 -2.9744,-6.87481 -3.6789,-8.24969 -4.0414,-7.88718 -0.1979,0.19789 0.115,1.60862 0.6953,3.13495 0.5803,1.52633 1.3113,4.40124 1.6245,6.38869 0.3131,1.98745 1.2408,5.41354 2.0615,7.61354 0.8206,2.2 2.3101,6.7634 3.3099,10.14089 0.9998,3.37749 2.2946,7.0317 2.8773,8.12046 0.5826,1.08877 1.5017,3.72537 2.0422,5.85911 0.5406,2.13375 2.3727,9.00029 4.0714,15.25898 1.6987,6.2587 2.8947,11.57331 2.6577,11.81026 -0.2369,0.23695 0.1388,2.5901 0.835,5.22922 1.6018,6.07219 1.1807,17.23356 -0.8708,23.08108 -0.8683,2.475 -1.5853,5.66776 -1.5933,7.09501 -0.014,2.53425 -2.6794,5.90499 -4.669,5.90499 -1.3538,0 -5.3455,-4.34189 -5.3455,-5.81445 0,-0.65205 -0.45,-1.18555 -1,-1.18555 -0.55,0 -1,0.9551 -1,2.12244 0,1.58714 -0.316,1.86021 -1.2529,1.08269 -1.9701,-1.63507 -4.3308,0.77023 -5.0316,5.12671 -0.339,2.1075 -1.5985,5.86076 -2.799,8.34055 -1.2004,2.4798 -2.4074,6.50331 -2.6822,8.94113 -0.5019,4.45308 -1.3349,5.6103 -4.3803,6.0854 -3.0652,0.47819 -4.0519,-2.10967 -3.0016,-7.87266 1.1117,-6.09991 0.7409,-7.38831 -0.9226,-3.20549 -0.6298,1.58358 -1.6317,3.77923 -2.2266,4.87923 -0.5948,1.1 -2.1224,4.1375 -3.3947,6.75 -1.2723,2.6125 -2.7076,4.75 -3.1896,4.75 -0.4819,0 -1.3915,1.24393 -2.0213,2.76428 -0.6751,1.62989 -2.9772,3.73625 -5.6096,5.13277 -2.4556,1.30268 -6.0751,4.33375 -8.0433,6.73572 -1.9682,2.40198 -3.9881,4.36723 -4.4886,4.36723 -1.7215,0 -4.2044,-4.92009 -3.4024,-6.74228 0.4254,-0.96675 0.8193,-1.98272 0.8752,-2.25772 0.056,-0.275 0.4831,-1.10171 0.9493,-1.83713 0.5061,-0.79851 0.3706,-1.80557 -0.3363,-2.5 -0.903,-0.88699 -1.6202,-0.62908 -3.0232,1.08713 -1.8092,2.21312 -5.0187,3.09083 -5.0187,1.37244 0,-0.48265 0.6008,-1.37621 1.3352,-1.98568 0.7344,-0.60947 1.9032,-3.02707 2.5975,-5.37245 0.6942,-2.34537 1.6683,-5.0457 2.1647,-6.00074 0.4964,-0.95504 0.9026,-3.30893 0.9026,-5.23087 l 0,-3.49444 -4.3502,0.59625 c -6.1882,0.8482 -8.1149,-0.57004 -10.1913,-7.50194 l -1.7737,-5.92135 -3.3988,1.90898 c -3.2141,1.80527 -6.8838,2.65949 -12.0815,2.81231 -3.0458,0.0896 -7.3878,4.53954 -7.1624,7.34058 0.099,1.2248 0.1295,2.78941 0.069,3.47691 -0.177,1.99986 -4.2747,1.44447 -6.7923,-0.92061 -1.2707,-1.19384 -2.5247,-1.95642 -2.7864,-1.69463 -0.2618,0.26179 -0.7294,4.05107 -1.0392,8.42061 -0.3097,4.36955 -0.7625,8.61963 -1.0062,9.44463 -0.2437,0.825 -1.5781,11.23991 -2.9654,23.14424 -2.2434,19.25138 -2.4676,24.33687 -2.0279,46 0.2719,13.39567 0.733,27.50576 1.0248,31.35574 0.2917,3.85 0.7503,12.175 1.019,18.5 0.2687,6.325 0.913,17.125 1.4316,24 0.5187,6.875 1.2229,17.9 1.565,24.5 1.9481,37.5829 7.0124,67.8491 13.4713,80.50976 1.0973,2.1508 1.9951,4.519 1.9951,5.2627 0,0.7437 3.3796,4.79818 7.5103,9.00998 l 7.5103,7.6579 -2.5103,1.6448 c -2.9345,1.9228 -3.7741,1.5214 -11.9423,-5.7095 -2.8181,-2.4947 -5.7112,-4.234 -6.75,-4.058 -1.9075,0.3232 -2.5813,-2.2279 -0.868,-3.2868 0.5361,-0.3313 -0.6037,-4.16908 -2.6164,-8.80898 -8.7653,-20.20736 -12.6065,-35.85926 -12.2023,-49.72186 0.1202,-4.125 -0.2982,-11.775 -0.9298,-17 -1.1563,-9.5651 -1.7557,-19.1569 -2.7493,-44 -0.297,-7.425 -0.7553,-16.65 -1.0184,-20.5 -0.2632,-3.85 -0.6832,-22.97498 -0.9334,-42.49998 -0.4623,-36.08118 -0.4892,-35.59818 3.5599,-64 0.5881,-4.125 1.2319,-9.525 1.4307,-12 0.1988,-2.475 0.6678,-5.2875 1.0422,-6.25 1.2266,-3.15305 -1.2672,-1.83121 -2.8299,1.5 -0.8386,1.7875 -3.8148,8.09846 -6.614,14.02436 -2.7991,5.92589 -5.0893,11.44733 -5.0893,12.26987 0,1.6107 -4.3293,8.92322 -5.8332,9.85267 -0.5028,0.31076 -1.2075,-1.64626 -1.5661,-4.34893 -0.6493,-4.89468 -0.6646,-4.91186 -3.9226,-4.38315 -5.3623,0.87017 -6.4359,-1.56165 -2.9903,-6.7731 2.6217,-3.96534 2.8019,-4.89193 2.6595,-13.68108 -0.2024,-12.4891 -1.0419,-17.55254 -3.3522,-20.21626 -2.1021,-2.42382 -1.6419,-2.59658 -8.4989,3.19034 -5.5873,4.71543 -11.6459,8.78383 -12.7522,8.56327 -0.7797,-0.15543 -1.3623,1.1932 -1.561,3.61315 -0.2312,2.81614 -0.8401,3.99795 -2.25,4.36663 -1.0632,0.27802 -1.9399,1.01551 -1.9483,1.63886 -0.01,0.62515 -0.4992,0.46075 -1.0944,-0.36663 -0.8701,-1.2096 -0.9468,-1.1128 -0.3964,0.5 6.1734,18.08752 8.3274,27.27604 10.0802,43 0.3066,2.75 0.7812,5.67313 1.0546,6.49584 0.2735,0.82272 0.7153,5.54772 0.9818,10.5 0.2665,4.95229 0.9046,11.02916 1.4179,13.50416 1.1124,5.36368 2.0719,20.12334 1.8527,28.49998 -0.52,19.8708 0.342,34.8512 2.1322,37.0543 1.0247,1.2611 1.0753,1.5821 0.1629,1.033 -1.0985,-0.6609 -1.0985,-0.4327 0,1.3406 1.2225,1.9737 1.3426,1.7713 1.569,-2.6453 0.5249,-10.2374 1.3567,-13.4074 4.3365,-16.5255 2.851,-2.9833 3.0498,-3.0343 7.1034,-1.8198 2.2937,0.6872 5.1698,1.9044 6.3915,2.7049 2.8224,1.8493 4.8246,6.623 4.0584,9.6759 -0.9682,3.8577 -4.5563,7.6819 -7.2076,7.6819 -2.1075,0 -2.4274,0.4613 -2.4274,3.5 1.3732,16.818 9.7278,28.27639 20.8198,38.6855 0.3875,5.3571 0.2414,5.8571 -1.9505,6.6781 -2.6038,0.9753 -4.3117,0.021 -11.3302,-6.3309 -3.8532,-4.45306 -4.9683,-5.39026 -8.5679,-7.8253 -8.7266,-4.11134 -16.725,-8.16791 -16.8663,-0.9574 -0.2562,15.8225 -1.103,37.0453 -1.6259,40.75 -0.7528,5.3343 -5.3381,24.481 -6.466,26.99996 -0.4925,1.1 -2.3143,5.3221 -4.0485,9.3823 -4.58198,10.72818 -6.36772,13.57978 -8.72189,13.92778 -1.15354,0.1705 -2.63514,0.958 -3.29242,1.75 -1.41249,1.7019 -2.95018,1.8866 -2.95018,0.3544 0,-0.5971 1.33691,-3.8596 2.97092,-7.25 8.18227,-16.97778 15.00397,-38.87264 15.62947,-50.16444 0.1828,-3.3 0.5919,-11.4 0.9092,-18 l 0.5767,-12 -3.282,-2.0134 c -4.0055,-2.4571 -4.965,-5.4866 -1.7379,-5.4866 1.2172,0 2.804,0.7875 3.5262,1.75 1.1316,1.5082 1.2953,0.9623 1.1848,-3.9506 -0.07,-3.1353 -0.4412,-5.5072 -0.8237,-5.2708 -0.3826,0.2365 -1.7225,-0.4607 -2.9776,-1.5493 -2.4931,-2.1623 -3.9761,-2.5319 -3.9761,-0.9911 0,0.5436 -0.7875,0.9223 -1.75,0.8416 -3.89659,-0.3266 -5.24117,0.2869 -5.83761,2.6633 -0.34415,1.3712 -1.02772,2.2447 -1.51905,1.941 -0.49133,-0.3037 -0.89333,-0.049 -0.89333,0.5659 0,0.6149 -0.45,0.8399 -1,0.5 -1.02075,-0.6308 -1.37096,0.6211 -1.05105,3.7574 0.0986,0.9665 -0.4431,2.3796 -1.20375,3.1403 -0.76066,0.7606 -1.95284,4.6948 -2.64931,8.7427 -0.69646,4.0478 -1.66884,9.3846 -2.16084,11.8596 -1.01543,5.1081 -3.1176,24.325 -2.80447,25.6368 0.11333,0.4748 -0.12084,2.4382 -0.52037,4.3632 -1.42727,6.8768 -0.47595,45.40814 1.41964,57.49994 0.60355,3.85 1.83672,8.4452 2.74037,10.2114 3.26495,6.3816 -0.44445,9.963 -12.13506,11.7161 -3.36346,0.5044 -4.78585,0.2519 -6.42121,-1.1398 z m 31.90811,-316.96262 c -1.17884,-2.02721 -1.46351,-1.37835 -0.49853,1.13634 0.34294,0.8937 0.83419,1.41426 1.09166,1.15679 0.25747,-0.25747 -0.009,-1.28938 -0.59313,-2.29313 z m -60.31888,-28.325 c -0.26805,-3.51779 -1.80318,-4.08536 -1.80318,-0.66667 0,2.09189 0.72263,3.66667 1.68255,3.66667 0.19207,0 0.24635,-1.35 0.12063,-3 z m 128.19681,300.10692 c 0,-1.6744 0.6159,-2.107 3,-2.107 2,0 3,0.5 3,1.5 0,0.825 -0.6382,1.5 -1.4182,1.5 -0.78,0 -2.13,0.2732 -3,0.607 -1.134,0.4352 -1.5818,0.01 -1.5818,-1.5 z m -0.75,-13.82718 c -1.4395,-0.5141 -1.7188,-4.2798 -0.3174,-4.2798 0.9143,0 2.5797,3.8728 1.9087,4.4385 -0.1877,0.1582 -0.9038,0.087 -1.5913,-0.1587 z m -12.597,-19.12006 c -3.1038,-3.2396 -3.3043,-4.162 -0.903,-4.1534 1.8723,0.01 5.6616,5.6213 4.3437,6.4358 -0.4332,0.2678 -1.9815,-0.7593 -3.4407,-2.2824 z m -14.903,-19.6292 c -2.1025,-2.8914 -2.1758,-3.5305 -0.405,-3.5305 1.6005,0 4.655,3.1685 4.655,4.8288 0,1.9757 -2.4031,1.2417 -4.25,-1.2983 z m -14.5538,-17.8281 c -3.1758,-3.2766 -4.1101,-5.7024 -2.1962,-5.7024 0.55,0 1.0028,0.3375 1.0063,0.75 0,0.4125 1.3535,1.5166 3,2.4535 1.7948,1.0213 2.9937,2.5231 2.9937,3.75 0,2.8535 -1.1043,2.5659 -4.8038,-1.2511 z m 6.7623,-10.7419 c -1.9022,-1.6257 -2.8351,-2.9568 -2.0732,-2.9581 1.3715,0 6.5469,4.8988 5.8786,5.5671 -0.1908,0.1908 -1.9032,-0.9833 -3.8054,-2.609 z m -25.4738,-8.9851 c -0.4075,-0.6595 -0.1208,-1.5842 0.6372,-2.0551 1.663,-1.0332 2.5595,0.7983 1.1035,2.2544 -0.6662,0.6661 -1.2468,0.5997 -1.7407,-0.1993 z m -3.4058,-1.5587 c 0.048,-1.165 0.285,-1.4019 0.6042,-0.6042 0.2889,0.7219 0.2534,1.5844 -0.079,1.9167 -0.3323,0.3323 -0.5686,-0.2583 -0.5252,-1.3125 z"
       id="path2996"
       inkscape:connector-curvature="0"
       sodipodi:nodetypes="ssssssssssssccccccsssscssssssscscssscccscssscsssssssssssssssssssccssssscssscssccssscssscssssssssssssssssssssscsssssssssscsssssssssscsssscsscsccsssssscsscssssssssssssssssssscsssssssssssssssssssssssssssssssssscsssssssscsscscccscscsssssssssccsccsssssssssssssssssssssscssssssscccscscssccscccsssccssssccssscsscssscccsscsscsscsscsssssssscscsccccccssssssccssscsscsccccccc" />
  </g>
</svg>
